<svg width="354" height="80" viewBox="0 0 354 80" fill="none" xmlns="http://www.w3.org/2000/svg">
<path d="M23.3246 64V41.6H18.5246V32H28.3379V38.4H30.5779C31.3957 36.0889 32.729 34.3822 34.5779 33.28C36.4268 32.1422 38.489 31.5733 40.7646 31.5733H43.4846V40.1067H40.3379C37.7068 40.1067 35.8046 40.8356 34.6312 42.2933C33.4935 43.7511 32.9246 45.6533 32.9246 48V64H23.3246Z" fill="#223800"></path>
<path d="M61.9296 64.64C58.4096 64.64 55.3518 63.9644 52.7562 62.6133C50.1607 61.2267 48.1518 59.2889 46.7296 56.8C45.3429 54.2756 44.6496 51.3067 44.6496 47.8933C44.6496 44.48 45.3251 41.5467 46.6762 39.0933C48.0629 36.6044 50.0185 34.7022 52.5429 33.3867C55.1029 32.0356 58.1074 31.36 61.5562 31.36C64.9696 31.36 67.9029 32.0178 70.3563 33.3333C72.8096 34.6133 74.6763 36.4622 75.9562 38.88C77.2718 41.2978 77.9296 44.1956 77.9296 47.5733V50.72H54.0896C54.4807 52.7822 55.334 54.3467 56.6496 55.4133C57.9651 56.4444 59.7074 56.96 61.8763 56.96C63.6185 56.96 64.9696 56.6933 65.9296 56.16C66.9251 55.5911 67.6362 54.7022 68.0629 53.4933H77.8763C77.2007 56.9778 75.4585 59.7156 72.6496 61.7067C69.8407 63.6622 66.2674 64.64 61.9296 64.64ZM54.2496 44.32H68.5429C68.2229 42.5422 67.4763 41.2267 66.3029 40.3733C65.1651 39.4844 63.6007 39.04 61.6096 39.04C59.654 39.04 58.054 39.4844 56.8096 40.3733C55.5651 41.2622 54.7118 42.5778 54.2496 44.32Z" fill="#223800"></path>
<path d="M85.8063 64V39.68H80.3662V32H85.9129V26.88C85.9129 24.2489 86.5885 22.3111 87.9396 21.0667C89.3262 19.8222 91.2818 19.2 93.8063 19.2H103.086V26.88H95.5129V32H102.446V39.68H95.6196V64H85.8063Z" fill="#223800"></path>
<path d="M122.393 64.64C118.873 64.64 115.797 63.9644 113.166 62.6133C110.535 61.2267 108.491 59.2889 107.033 56.8C105.611 54.2756 104.9 51.3244 104.9 47.9467C104.9 44.5689 105.611 41.6356 107.033 39.1467C108.491 36.6578 110.535 34.7378 113.166 33.3867C115.797 32.0356 118.891 31.36 122.446 31.36C126.002 31.36 129.06 32.0356 131.62 33.3867C134.215 34.7378 136.224 36.6578 137.646 39.1467C139.068 41.6356 139.78 44.5867 139.78 48C139.78 51.3778 139.068 54.3289 137.646 56.8533C136.224 59.3422 134.215 61.2622 131.62 62.6133C129.024 63.9644 125.948 64.64 122.393 64.64ZM122.393 56.1067C124.846 56.1067 126.713 55.3778 127.993 53.92C129.308 52.4267 129.966 50.4356 129.966 47.9467C129.966 45.4578 129.308 43.5022 127.993 42.08C126.713 40.6222 124.846 39.8933 122.393 39.8933C119.904 39.8933 118.002 40.6222 116.686 42.08C115.371 43.5022 114.713 45.4578 114.713 47.9467C114.713 50.4356 115.371 52.4267 116.686 53.92C118.002 55.3778 119.904 56.1067 122.393 56.1067Z" fill="#223800"></path>
<path d="M147.575 64V41.6H142.775V32H152.588V38.4H154.828C155.646 36.0889 156.979 34.3822 158.828 33.28C160.677 32.1422 162.739 31.5733 165.015 31.5733H167.735V40.1067H164.588C161.957 40.1067 160.055 40.8356 158.881 42.2933C157.743 43.7511 157.175 45.6533 157.175 48V64H147.575Z" fill="#223800"></path>
<path d="M174.898 64V41.6H170.098V32H179.911V37.3333H182.151C183.36 35.4489 184.871 33.9911 186.685 32.96C188.533 31.9289 190.827 31.4133 193.565 31.4133C196.16 31.4133 198.365 31.8578 200.178 32.7467C202.027 33.6 203.52 34.8622 204.658 36.5333H204.871C207.396 33.12 211.022 31.4133 215.751 31.4133C219.982 31.4133 223.325 32.64 225.778 35.0933C228.267 37.5467 229.511 40.8356 229.511 44.96V64H219.698V46.88C219.698 42.4 217.6 40.16 213.405 40.16C209.209 40.16 207.111 42.4 207.111 46.88V64H197.298V46.88C197.298 42.4 195.165 40.16 190.898 40.16C188.836 40.16 187.289 40.7111 186.258 41.8133C185.227 42.9156 184.711 44.6044 184.711 46.88V64H174.898Z" fill="#223800"></path>
<path d="M275.648 64V41.6H270.848V32H280.661V37.3333H282.901C284.181 35.4844 285.746 34.0444 287.595 33.0133C289.479 31.9467 291.879 31.4133 294.795 31.4133C299.346 31.4133 302.83 32.64 305.248 35.0933C307.701 37.5467 308.928 40.8356 308.928 44.96V64H299.115V46.88C299.115 44.6756 298.528 43.0044 297.355 41.8667C296.217 40.7289 294.528 40.16 292.288 40.16C290.048 40.16 288.341 40.7289 287.168 41.8667C286.03 43.0044 285.461 44.6756 285.461 46.88V64H275.648Z" fill="#223800"></path>
<path d="M326.04 64C323.551 64 321.613 63.3778 320.226 62.1333C318.875 60.8533 318.2 58.9156 318.2 56.32V39.68H312.866V32H318.306V22.4H327.906V32H334.946V39.68H328.013V56.32H335.693V64H326.04Z" fill="#223800"></path>
<path d="M252 27C252 27 262.286 38.8929 252 51.6667C264 51.6667 273 64 273 64H231L252 27Z" fill="#68A800"></path>
</svg>