<svg xmlns="http://www.w3.org/2000/svg" width="317.168" height="45.440" viewBox="0 0 317.168 45.440" fill="none">
  <path d="M 4.8 44.8 L 4.8 22.4 L 0 22.4 L 0 12.8 L 9.813 12.8 L 9.813 19.2 L 12.053 19.2 C 12.871 16.889 14.204 15.182 16.053 14.08 C 17.902 12.942 19.964 12.373 22.24 12.373 L 24.96 12.373 L 24.96 20.907 L 21.813 20.907 C 19.182 20.907 17.28 21.636 16.107 23.093 C 14.969 24.551 14.4 26.453 14.4 28.8 L 14.4 44.8 L 4.8 44.8 Z" fill="currentColor" fill-rule="nonzero"/>
  <path d="M 43.405 45.44 C 39.885 45.44 36.827 44.764 34.232 43.413 C 31.636 42.027 29.627 40.089 28.205 37.6 C 26.818 35.076 26.125 32.107 26.125 28.693 C 26.125 25.28 26.801 22.347 28.152 19.893 C 29.538 17.404 31.494 15.502 34.018 14.187 C 36.578 12.836 39.583 12.16 43.032 12.16 C 46.445 12.16 49.378 12.818 51.832 14.133 C 54.285 15.413 56.152 17.262 57.432 19.68 C 58.747 22.098 59.405 24.996 59.405 28.373 L 59.405 31.52 L 35.565 31.52 C 35.956 33.582 36.809 35.147 38.125 36.213 C 39.441 37.244 41.183 37.76 43.352 37.76 C 45.094 37.76 46.445 37.493 47.405 36.96 C 48.401 36.391 49.112 35.502 49.538 34.293 L 59.352 34.293 C 58.676 37.778 56.934 40.516 54.125 42.507 C 51.316 44.462 47.743 45.44 43.405 45.44 Z M 35.725 25.12 L 50.018 25.12 C 49.698 23.342 48.952 22.027 47.778 21.173 C 46.641 20.284 45.076 19.84 43.085 19.84 C 41.129 19.84 39.529 20.284 38.285 21.173 C 37.041 22.062 36.187 23.378 35.725 25.12 Z" fill="currentColor" fill-rule="nonzero"/>
  <path d="M 67.282 44.8 L 67.282 20.48 L 61.842 20.48 L 61.842 12.8 L 67.388 12.8 L 67.388 7.68 C 67.388 5.049 68.064 3.111 69.415 1.867 C 70.802 0.622 72.757 0 75.282 0 L 84.562 0 L 84.562 7.68 L 76.988 7.68 L 76.988 12.8 L 83.922 12.8 L 83.922 20.48 L 77.095 20.48 L 77.095 44.8 L 67.282 44.8 Z" fill="currentColor" fill-rule="nonzero"/>
  <path d="M 103.868 45.44 C 100.348 45.44 97.273 44.764 94.642 43.413 C 92.011 42.027 89.966 40.089 88.508 37.6 C 87.086 35.076 86.375 32.124 86.375 28.747 C 86.375 25.369 87.086 22.436 88.508 19.947 C 89.966 17.458 92.011 15.538 94.642 14.187 C 97.273 12.836 100.366 12.16 103.922 12.16 C 107.477 12.16 110.535 12.836 113.095 14.187 C 115.691 15.538 117.699 17.458 119.122 19.947 C 120.544 22.436 121.255 25.387 121.255 28.8 C 121.255 32.178 120.544 35.129 119.122 37.653 C 117.699 40.142 115.691 42.062 113.095 43.413 C 110.499 44.764 107.424 45.44 103.868 45.44 Z M 103.868 36.907 C 106.322 36.907 108.188 36.178 109.468 34.72 C 110.784 33.227 111.442 31.236 111.442 28.747 C 111.442 26.258 110.784 24.302 109.468 22.88 C 108.188 21.422 106.322 20.693 103.868 20.693 C 101.379 20.693 99.477 21.422 98.162 22.88 C 96.846 24.302 96.188 26.258 96.188 28.747 C 96.188 31.236 96.846 33.227 98.162 34.72 C 99.477 36.178 101.379 36.907 103.868 36.907 Z" fill="currentColor" fill-rule="nonzero"/>
  <path d="M 129.05 44.8 L 129.05 22.4 L 124.25 22.4 L 124.25 12.8 L 134.063 12.8 L 134.063 19.2 L 136.303 19.2 C 137.121 16.889 138.454 15.182 140.303 14.08 C 142.152 12.942 144.214 12.373 146.49 12.373 L 149.21 12.373 L 149.21 20.907 L 146.063 20.907 C 143.432 20.907 141.53 21.636 140.357 23.093 C 139.219 24.551 138.65 26.453 138.65 28.8 L 138.65 44.8 L 129.05 44.8 Z" fill="currentColor" fill-rule="nonzero"/>
  <path d="M 156.373 44.8 L 156.373 22.4 L 151.573 22.4 L 151.573 12.8 L 161.387 12.8 L 161.387 18.133 L 163.627 18.133 C 164.836 16.249 166.347 14.791 168.16 13.76 C 170.009 12.729 172.302 12.213 175.04 12.213 C 177.636 12.213 179.84 12.658 181.653 13.547 C 183.502 14.4 184.996 15.662 186.133 17.333 L 186.347 17.333 C 188.871 13.92 192.498 12.213 197.227 12.213 C 201.458 12.213 204.8 13.44 207.253 15.893 C 209.742 18.347 210.987 21.636 210.987 25.76 L 210.987 44.8 L 201.173 44.8 L 201.173 27.68 C 201.173 23.2 199.076 20.96 194.88 20.96 C 190.684 20.96 188.587 23.2 188.587 27.68 L 188.587 44.8 L 178.773 44.8 L 178.773 27.68 C 178.773 23.2 176.64 20.96 172.373 20.96 C 170.311 20.96 168.764 21.511 167.733 22.613 C 166.702 23.716 166.187 25.404 166.187 27.68 L 166.187 44.8 L 156.373 44.8 Z" fill="currentColor" fill-rule="nonzero"/>
  <path d="M 257.123 44.8 L 257.123 22.4 L 252.323 22.4 L 252.323 12.8 L 262.137 12.8 L 262.137 18.133 L 264.377 18.133 C 265.657 16.284 267.221 14.844 269.07 13.813 C 270.954 12.747 273.354 12.213 276.27 12.213 C 280.821 12.213 284.306 13.44 286.723 15.893 C 289.177 18.347 290.403 21.636 290.403 25.76 L 290.403 44.8 L 280.59 44.8 L 280.59 27.68 C 280.59 25.476 280.003 23.804 278.83 22.667 C 277.692 21.529 276.003 20.96 273.763 20.96 C 271.523 20.96 269.817 21.529 268.643 22.667 C 267.506 23.804 266.937 25.476 266.937 27.68 L 266.937 44.8 L 257.123 44.8 Z" fill="currentColor" fill-rule="nonzero"/>
  <path d="M 307.515 44.8 C 305.026 44.8 303.088 44.178 301.702 42.933 C 300.351 41.653 299.675 39.716 299.675 37.12 L 299.675 20.48 L 294.342 20.48 L 294.342 12.8 L 299.782 12.8 L 299.782 3.2 L 309.382 3.2 L 309.382 12.8 L 316.422 12.8 L 316.422 20.48 L 309.488 20.48 L 309.488 37.12 L 317.168 37.12 L 317.168 44.8 L 307.515 44.8 Z" fill="currentColor" fill-rule="nonzero"/>
</svg>
