<svg xmlns="http://www.w3.org/2000/svg" width="562.679" height="509.635" viewBox="0 0 562.679 509.635" fill="none">
  <path d="M 408.684 105.278 C 392.491 79.597 376.011 53.56 354.117 33.168 C 332.222 12.725 303.861 -1.717 274.78 0.165 C 249.245 1.843 225.578 15.98 206.894 34.44 C 188.209 52.899 173.693 75.631 159.416 98.159 C 120.802 158.979 82.14 219.799 43.526 280.67 C 25.177 309.555 6.349 339.711 1.27 374.138 C -4.862 415.736 11.666 458.097 40.986 485.761 C 71.648 514.696 121.329 512.357 158.65 504.424 C 199.564 495.728 239.567 479.353 281.296 479.404 C 317.035 479.404 351.577 491.507 386.359 500.305 C 421.093 509.051 458.414 514.442 491.95 501.423 C 533.582 485.303 563.477 439.484 562.662 392.445 C 561.896 349.525 516.095 275.483 516.095 275.483 C 516.095 275.483 444.481 162.018 408.684 105.278 Z" fill="currentColor" fill-rule="nonzero"/>
</svg>
