<svg width="278" height="79" viewBox="0 0 278 79" fill="none" xmlns="http://www.w3.org/2000/svg">
<path d="M6.80055 47.3953C4.03117 44.3374 1.94194 40.5818 0.8403 36.3098C-1.01039 29.133 0.283309 21.8841 3.86147 16.0207L39.3678 6.86461C45.3352 10.2665 49.973 15.9858 51.8237 23.1626C52.9254 27.4346 52.9128 31.7323 51.9675 35.748L33.7268 40.4517L16.0609 45.0073L6.80055 47.3953Z" fill="#2F5D4E"/>
<path d="M52.5688 3.46043L17.0625 12.6165C20.5036 6.97763 26.0576 2.6201 32.9595 0.8403C39.8614 -0.939505 46.83 0.188823 52.5688 3.46043Z" fill="#2F5D4E"/>
<path fill-rule="evenodd" clip-rule="evenodd" d="M16.0609 45.0073L33.7268 40.4517H17.9303C17.1717 41.8963 16.5433 43.42 16.0609 45.0073Z" fill="#2F5D4E"/>
<path d="M41.2526 79C55.7918 79 67.5782 67.2136 67.5782 52.6744C67.5782 48.2625 66.493 44.1042 64.5749 40.4517H33.7268L16.0609 45.0073C15.3235 47.4332 14.9269 50.0075 14.9269 52.6744C14.9269 67.2136 26.7133 79 41.2526 79Z" fill="#C9A44C"/>
<path d="M105.052 56.485C102.745 56.485 100.731 56.1176 99.0115 55.3827C97.2919 54.6478 95.9544 53.5455 94.9991 52.0757C94.0437 50.5913 93.566 48.754 93.566 46.5641C93.566 46.3142 93.566 46.0938 93.566 45.9027C93.566 45.6969 93.566 45.4691 93.566 45.2193H99.3643C99.3643 45.4397 99.3643 45.6455 99.3643 45.8366C99.3643 46.0129 99.3643 46.2187 99.3643 46.4539C99.3643 48.2176 99.8419 49.5404 100.797 50.4222C101.767 51.2894 103.193 51.723 105.074 51.723C106.97 51.723 108.418 51.407 109.417 50.775C110.432 50.143 110.939 49.1288 110.939 47.7326C110.939 46.7184 110.593 45.8586 109.903 45.1531C109.226 44.4329 108.293 43.8009 107.103 43.2571C105.912 42.7133 104.56 42.2062 103.046 41.7359C101.341 41.2068 99.7905 40.5233 98.3942 39.6856C96.9979 38.8478 95.8809 37.7896 95.0432 36.5109C94.2054 35.2322 93.7865 33.6595 93.7865 31.7929C93.7865 29.9263 94.2642 28.339 95.2195 27.0309C96.1896 25.7228 97.5124 24.7307 99.1879 24.0546C100.878 23.3638 102.796 23.0184 104.942 23.0184C107.191 23.0184 109.168 23.3712 110.873 24.0766C112.592 24.7821 113.937 25.833 114.907 27.2293C115.877 28.6256 116.362 30.3673 116.362 32.4543C116.362 32.7336 116.362 32.9761 116.362 33.1819C116.362 33.3876 116.362 33.6228 116.362 33.8873H110.542C110.542 33.6963 110.542 33.5052 110.542 33.3141C110.542 33.1084 110.542 32.91 110.542 32.7189C110.542 31.0433 110.086 29.8087 109.175 29.0151C108.264 28.2067 106.882 27.8025 105.03 27.8025C103.222 27.8025 101.833 28.1185 100.863 28.7505C99.8934 29.3825 99.4084 30.3893 99.4084 31.7709C99.4084 32.7997 99.7391 33.6595 100.4 34.3503C101.062 35.0411 101.966 35.6437 103.112 36.1581C104.273 36.6579 105.589 37.1649 107.059 37.6793C109.013 38.326 110.704 39.0609 112.129 39.884C113.555 40.6924 114.657 41.7065 115.436 42.9264C116.215 44.1316 116.605 45.6675 116.605 47.5341C116.605 49.4448 116.12 51.0689 115.15 52.4064C114.194 53.7292 112.849 54.7433 111.115 55.4488C109.395 56.1396 107.375 56.485 105.052 56.485ZM138.048 56V47.5562C138.048 47.2034 138.048 46.7625 138.048 46.2334C138.048 45.7043 138.048 45.1678 138.048 44.624C138.048 44.0802 138.048 43.6319 138.048 43.2792C138.048 41.3391 137.666 39.8546 136.902 38.8258C136.152 37.7822 134.866 37.2605 133.044 37.2605C131.824 37.2605 130.78 37.503 129.913 37.988C129.061 38.4583 128.407 39.1197 127.951 39.9722C127.495 40.8246 127.268 41.8094 127.268 42.9264L125.151 41.802C125.151 39.9354 125.57 38.282 126.408 36.8416C127.26 35.3865 128.436 34.2474 129.935 33.4244C131.434 32.6013 133.154 32.1898 135.094 32.1898C137.931 32.1898 140.099 33.0349 141.598 34.7251C143.097 36.4006 143.847 38.7376 143.847 41.7359C143.847 42.5002 143.847 43.4114 143.847 44.4697C143.847 45.5132 143.847 46.689 143.847 47.9971V56H138.048ZM121.469 56V21.5413H127.268V56H121.469ZM149.348 56V32.5866H155.08V56H149.348ZM152.236 28.2655C151.295 28.2655 150.472 28.0156 149.767 27.5159C149.076 27.0015 148.731 26.2886 148.731 25.3774C148.731 24.4808 149.076 23.7827 149.767 23.283C150.472 22.7833 151.295 22.5334 152.236 22.5334C153.162 22.5334 153.97 22.7833 154.661 23.283C155.352 23.7827 155.697 24.4808 155.697 25.3774C155.697 26.2886 155.352 27.0015 154.661 27.5159C153.97 28.0156 153.162 28.2655 152.236 28.2655ZM163.67 56V37.2164H158.709V32.5866H163.67V30.4922C163.67 29.1253 163.854 27.9274 164.221 26.8986C164.588 25.8551 165.088 24.9732 165.72 24.253C166.352 23.5328 167.072 22.9523 167.881 22.5113C168.704 22.0557 169.578 21.725 170.504 21.5193C171.445 21.3135 172.378 21.2106 173.304 21.2106C174.186 21.2106 174.855 21.262 175.31 21.3649C175.781 21.4678 176.097 21.556 176.258 21.6295V26.3033C176.082 26.2446 175.773 26.1784 175.332 26.1049C174.906 26.0167 174.443 25.9726 173.943 25.9726C173.047 25.9726 172.305 26.1049 171.717 26.3695C171.129 26.6193 170.673 26.9721 170.35 27.4277C170.027 27.8833 169.799 28.4125 169.666 29.0151C169.534 29.603 169.468 30.2497 169.468 30.9552V32.5866H175.95V37.2164H169.468V56H163.67ZM190.488 56.4409C189.65 56.4409 188.797 56.3601 187.93 56.1984C187.063 56.0367 186.269 55.7354 185.549 55.2945C184.829 54.8536 184.249 54.2069 183.808 53.3544C183.367 52.502 183.146 51.3776 183.146 49.9813C183.146 49.658 183.146 49.3346 183.146 49.0113C183.146 48.6732 183.146 48.3278 183.146 47.9751V37.2164H177.613V32.5866H179.861C180.626 32.5866 181.228 32.5572 181.669 32.4984C182.11 32.4249 182.433 32.2633 182.639 32.0134C182.845 31.7635 182.977 31.374 183.036 30.8449C183.109 30.3011 183.146 29.5515 183.146 28.5962V24.8703H188.966V32.5866H195.933V37.2164H188.966V46.6082C188.966 46.8874 188.966 47.1667 188.966 47.446C188.966 47.7105 188.966 47.9677 188.966 48.2176C188.966 49.3052 189.099 50.1797 189.363 50.8411C189.628 51.5025 190.253 51.8332 191.237 51.8332C191.708 51.8332 192.149 51.7891 192.56 51.7009C192.986 51.6127 193.302 51.5246 193.508 51.4364V55.978C193.229 56.0808 192.825 56.1837 192.295 56.2866C191.766 56.3895 191.164 56.4409 190.488 56.4409ZM206.352 21.5413V56H200.642V21.5413H206.352ZM212.172 56V32.5866H217.904V56H212.172ZM215.06 28.2655C214.119 28.2655 213.296 28.0156 212.591 27.5159C211.9 27.0015 211.554 26.2886 211.554 25.3774C211.554 24.4808 211.9 23.7827 212.591 23.283C213.296 22.7833 214.119 22.5334 215.06 22.5334C215.986 22.5334 216.794 22.7833 217.485 23.283C218.176 23.7827 218.521 24.4808 218.521 25.3774C218.521 26.2886 218.176 27.0015 217.485 27.5159C216.794 28.0156 215.986 28.2655 215.06 28.2655ZM240.207 56V45.6161C240.207 45.0282 240.207 44.5138 240.207 44.0728C240.207 43.6172 240.207 43.2057 240.207 42.8382C240.207 41.78 240.052 40.832 239.744 39.9942C239.45 39.1418 238.935 38.473 238.2 37.988C237.48 37.503 236.481 37.2605 235.202 37.2605C234.085 37.2605 233.093 37.5324 232.226 38.0762C231.359 38.6053 230.675 39.3402 230.176 40.2808C229.691 41.2068 229.448 42.2797 229.448 43.4996L227.486 42.2871C227.486 40.3323 227.927 38.598 228.809 37.0841C229.705 35.5555 230.903 34.3577 232.402 33.4905C233.901 32.6233 235.562 32.1898 237.385 32.1898C239.266 32.1898 240.846 32.5572 242.125 33.2921C243.418 34.027 244.388 35.0705 245.035 36.4227C245.696 37.7749 246.027 39.3622 246.027 41.1847C246.027 41.8902 246.027 42.6839 246.027 43.5658C246.027 44.4476 246.027 45.3148 246.027 46.1673V56H240.207ZM223.65 56V32.5866H229.448V56H223.65ZM253.756 46.1673V42.0446H270.137L269.475 43.1469C269.475 43.0587 269.475 42.9632 269.475 42.8603C269.475 42.7427 269.475 42.6472 269.475 42.5737C269.475 41.5595 269.247 40.6115 268.792 39.7297C268.336 38.8331 267.645 38.1129 266.719 37.5691C265.793 37.0106 264.618 36.7313 263.192 36.7313C261.781 36.7313 260.554 37.0326 259.51 37.6353C258.481 38.2232 257.68 39.0756 257.107 40.1927C256.549 41.3097 256.269 42.6472 256.269 44.2051C256.269 45.8072 256.541 47.1887 257.085 48.3499C257.629 49.4963 258.423 50.3781 259.466 50.9954C260.524 51.598 261.81 51.8993 263.324 51.8993C264.353 51.8993 265.242 51.8038 265.992 51.6127C266.741 51.4217 267.351 51.1645 267.822 50.8411C268.307 50.5031 268.667 50.143 268.902 49.7608C269.152 49.3787 269.299 48.9966 269.343 48.6144H275.119C275.031 49.5992 274.7 50.5619 274.127 51.5025C273.568 52.4285 272.782 53.2736 271.768 54.0379C270.754 54.7874 269.519 55.39 268.064 55.8457C266.624 56.2866 264.978 56.5071 263.126 56.5071C260.612 56.5071 258.415 55.9927 256.534 54.9638C254.653 53.935 253.183 52.502 252.125 50.6647C251.081 48.8275 250.559 46.7258 250.559 44.3594C250.559 41.9343 251.088 39.8105 252.147 37.988C253.22 36.1655 254.704 34.7472 256.6 33.733C258.496 32.7042 260.671 32.1898 263.126 32.1898C265.654 32.1898 267.836 32.7042 269.674 33.733C271.525 34.7619 272.951 36.1949 273.951 38.0321C274.95 39.8546 275.45 41.9784 275.45 44.4035C275.45 44.7122 275.442 45.0429 275.428 45.3956C275.413 45.7484 275.391 46.0056 275.362 46.1673H253.756Z" fill="#2F5D4E"/>
</svg>
